<mxfile host="app.diagrams.net" modified="2020-11-02T09:04:05.343Z" agent="5.0 (Windows)" etag="0YxTVeInlHcHENfy32up" version="13.8.5" type="github">
  <diagram id="GABBl2dpVVqAl6sFdLsY" name="Page-1">
    <mxGraphModel dx="1865" dy="1918" grid="1" gridSize="10" guides="1" tooltips="1" connect="1" arrows="1" fold="1" page="1" pageScale="1" pageWidth="850" pageHeight="1100" math="0" shadow="0">
      <root>
        <mxCell id="0" />
        <mxCell id="1" parent="0" />
        <mxCell id="sEFjxK3mFK4mutGB9BbR-1" value="&lt;a href=&quot;null&quot;&gt;Hämta patientinformation&lt;/a&gt;" style="rounded=1;whiteSpace=wrap;html=1;shadow=1;fontSize=12;fillColor=#fad9d5;strokeColor=#ae4132;" vertex="1" parent="1">
          <mxGeometry x="102.5" y="-800" width="145" height="20" as="geometry" />
        </mxCell>
        <mxCell id="sEFjxK3mFK4mutGB9BbR-2" value="Registrera förskrivning" style="rounded=1;whiteSpace=wrap;html=1;shadow=1;fontSize=12;fillColor=#fad9d5;strokeColor=#ae4132;" vertex="1" parent="1">
          <mxGeometry x="102.5" y="-770" width="145" height="20" as="geometry" />
        </mxCell>
        <mxCell id="sEFjxK3mFK4mutGB9BbR-3" value="" style="endArrow=classic;html=1;strokeColor=#000000;fontSize=12;align=center;entryX=0;entryY=0.5;entryDx=0;entryDy=0;exitX=1;exitY=0.5;exitDx=0;exitDy=0;" edge="1" parent="1">
          <mxGeometry width="50" height="50" relative="1" as="geometry">
            <mxPoint x="40" y="-760" as="sourcePoint" />
            <mxPoint x="90" y="-760" as="targetPoint" />
          </mxGeometry>
        </mxCell>
        <mxCell id="sEFjxK3mFK4mutGB9BbR-4" value="Registrera uttag" style="rounded=1;whiteSpace=wrap;html=1;shadow=1;fontSize=12;fillColor=#fad9d5;strokeColor=#ae4132;" vertex="1" parent="1">
          <mxGeometry x="102.5" y="-740" width="145" height="20" as="geometry" />
        </mxCell>
        <mxCell id="sEFjxK3mFK4mutGB9BbR-5" value="&lt;h1&gt;Verksamhetsflöde - Ordination DOS-patient&lt;br&gt;&lt;/h1&gt;&lt;p&gt;Lorem ipsum dolor sit amet, consectetur adipisicing elit, sed do eiusmod tempor incididunt ut labore et dolore magna aliqua.&lt;/p&gt;" style="text;html=1;strokeColor=none;fillColor=none;spacing=5;spacingTop=-20;whiteSpace=wrap;overflow=hidden;rounded=0;shadow=1;fontSize=12;" vertex="1" parent="1">
          <mxGeometry y="-1090" width="600" height="120" as="geometry" />
        </mxCell>
        <mxCell id="sEFjxK3mFK4mutGB9BbR-6" value="Anrop SOAP-tjänst" style="rounded=1;whiteSpace=wrap;html=1;shadow=1;fontSize=12;fillColor=#b0e3e6;strokeColor=#0e8088;" vertex="1" parent="1">
          <mxGeometry x="180" y="-940" width="145" height="20" as="geometry" />
        </mxCell>
        <mxCell id="sEFjxK3mFK4mutGB9BbR-7" value="Anrop FHIR-resurs" style="rounded=1;whiteSpace=wrap;html=1;shadow=1;fontSize=12;fillColor=#fad9d5;strokeColor=#ae4132;" vertex="1" parent="1">
          <mxGeometry x="180" y="-970" width="145" height="20" as="geometry" />
        </mxCell>
        <mxCell id="sEFjxK3mFK4mutGB9BbR-8" value="Apotekspersonal" style="shape=actor;whiteSpace=wrap;html=1;rounded=1;shadow=1;labelPosition=center;verticalLabelPosition=bottom;align=center;verticalAlign=top;fillColor=#b0e3e6;strokeColor=#0e8088;" vertex="1" parent="1">
          <mxGeometry x="100" y="-980" width="40" height="60" as="geometry" />
        </mxCell>
        <mxCell id="sEFjxK3mFK4mutGB9BbR-9" value="Farmaceut" style="shape=actor;whiteSpace=wrap;html=1;rounded=1;shadow=1;labelPosition=center;verticalLabelPosition=bottom;align=center;verticalAlign=top;fillColor=#ffe6cc;strokeColor=#d79b00;" vertex="1" parent="1">
          <mxGeometry x="10" y="-980" width="40" height="60" as="geometry" />
        </mxCell>
        <mxCell id="sEFjxK3mFK4mutGB9BbR-10" value="&lt;b&gt;Stödprocesser&lt;/b&gt;" style="text;html=1;strokeColor=none;fillColor=none;align=left;verticalAlign=middle;whiteSpace=wrap;rounded=0;shadow=1;fontSize=12;" vertex="1" parent="1">
          <mxGeometry x="720" y="-1090" width="219" height="20" as="geometry" />
        </mxCell>
        <mxCell id="sEFjxK3mFK4mutGB9BbR-11" value="Korrigera recept" style="shape=step;perimeter=stepPerimeter;whiteSpace=wrap;html=1;fixedSize=1;rounded=1;shadow=1;fontStyle=1" vertex="1" parent="1">
          <mxGeometry x="720" y="-1060" width="160" height="40" as="geometry" />
        </mxCell>
        <mxCell id="sEFjxK3mFK4mutGB9BbR-12" value="Registrera recept &amp;amp; uttag" style="shape=step;perimeter=stepPerimeter;whiteSpace=wrap;html=1;fixedSize=1;rounded=1;shadow=1;fontStyle=1;horizontal=1;verticalAlign=top;" vertex="1" parent="1">
          <mxGeometry x="70" y="-860" width="210" height="200" as="geometry" />
        </mxCell>
        <mxCell id="sEFjxK3mFK4mutGB9BbR-13" value="" style="ellipse;whiteSpace=wrap;html=1;aspect=fixed;rounded=1;shadow=1;fontSize=12;" vertex="1" parent="1">
          <mxGeometry y="-780" width="40" height="40" as="geometry" />
        </mxCell>
        <UserObject label="FOLK" tooltip="Folkbokförda personer (FOLK)" id="sEFjxK3mFK4mutGB9BbR-14">
          <mxCell style="whiteSpace=wrap;html=1;fillColor=#dae8fc;strokeColor=#6c8ebf;rounded=1;" vertex="1" parent="1">
            <mxGeometry x="80" y="-570" width="440" height="20" as="geometry" />
          </mxCell>
        </UserObject>
        <mxCell id="sEFjxK3mFK4mutGB9BbR-15" value="Nationella läkemedelslistan (NLL)" style="whiteSpace=wrap;html=1;fillColor=#d0cee2;strokeColor=#56517e;rounded=1;" vertex="1" parent="1">
          <mxGeometry x="80" y="-540" width="1270" height="20" as="geometry" />
        </mxCell>
        <mxCell id="sEFjxK3mFK4mutGB9BbR-16" value="Registrera uttag" style="rounded=1;whiteSpace=wrap;html=1;shadow=1;fontSize=12;fillColor=#fad9d5;strokeColor=#ae4132;" vertex="1" parent="1">
          <mxGeometry x="102.5" y="-740" width="145" height="20" as="geometry" />
        </mxCell>
      </root>
    </mxGraphModel>
  </diagram>
</mxfile>
